<svg width="56" height="64" viewBox="0 0 56 64" fill="none" xmlns="http://www.w3.org/2000/svg">
<path d="M16 0C18.2125 0 20 1.7875 20 4V8H36V4C36 1.7875 37.7875 0 40 0C42.2125 0 44 1.7875 44 4V8H50C53.3125 8 56 10.6875 56 14V20H0V14C0 10.6875 2.6875 8 6 8H12V4C12 1.7875 13.7875 0 16 0ZM0 24H56V58C56 61.3125 53.3125 64 50 64H6C2.6875 64 0 61.3125 0 58V24ZM8 34V38C8 39.1 8.9 40 10 40H14C15.1 40 16 39.1 16 38V34C16 32.9 15.1 32 14 32H10C8.9 32 8 32.9 8 34ZM24 34V38C24 39.1 24.9 40 26 40H30C31.1 40 32 39.1 32 38V34C32 32.9 31.1 32 30 32H26C24.9 32 24 32.9 24 34ZM42 32C40.9 32 40 32.9 40 34V38C40 39.1 40.9 40 42 40H46C47.1 40 48 39.1 48 38V34C48 32.9 47.1 32 46 32H42ZM8 50V54C8 55.1 8.9 56 10 56H14C15.1 56 16 55.1 16 54V50C16 48.9 15.1 48 14 48H10C8.9 48 8 48.9 8 50ZM26 48C24.9 48 24 48.9 24 50V54C24 55.1 24.9 56 26 56H30C31.1 56 32 55.1 32 54V50C32 48.9 31.1 48 30 48H26ZM40 50V54C40 55.1 40.9 56 42 56H46C47.1 56 48 55.1 48 54V50C48 48.9 47.1 48 46 48H42C40.9 48 40 48.9 40 50Z" fill="#151515"/>
</svg>
