<svg width="64" height="64" viewBox="0 0 64 64" fill="none" xmlns="http://www.w3.org/2000/svg">
<path d="M36 4C36 1.7875 34.2125 0 32 0C29.7875 0 28 1.7875 28 4V5.4375C28 11.675 20.4625 14.8 16.05 10.3875L15.025 9.375C13.4625 7.8125 10.9375 7.8125 9.375 9.375C7.8125 10.9375 7.8125 13.475 9.375 15.0375L10.4 16.0625C14.8 20.4625 11.675 28 5.4375 28H4C1.7875 28 0 29.7875 0 32C0 34.2125 1.7875 36 4 36H5.4375C11.675 36 14.8 43.5375 10.3875 47.95L9.375 48.975C7.8125 50.5375 7.8125 53.075 9.375 54.6375C10.9375 56.2 13.475 56.2 15.0375 54.6375L16.0625 53.6125C20.475 49.2 28.0125 52.325 28.0125 58.5625V60C28.0125 62.2125 29.8 64 32.0125 64C34.225 64 36.0125 62.2125 36.0125 60V58.5625C36.0125 52.325 43.55 49.2 47.9625 53.6125L48.9875 54.6375C50.55 56.2 53.0875 56.2 54.65 54.6375C56.2125 53.075 56.2125 50.5375 54.65 48.975L53.625 47.95C49.2125 43.5375 52.3375 36 58.575 36H60C62.2125 36 64 34.2125 64 32C64 29.7875 62.2125 28 60 28H58.5625C52.325 28 49.2 20.4625 53.6125 16.05L54.6375 15.025C56.2 13.4625 56.2 10.925 54.6375 9.3625C53.075 7.8 50.5375 7.8 48.975 9.3625L47.95 10.3875C43.5375 14.8 36 11.675 36 5.4375V4ZM34 28C34 31.3125 31.3125 34 28 34C24.6875 34 22 31.3125 22 28C22 24.6875 24.6875 22 28 22C31.3125 22 34 24.6875 34 28ZM38 41C36.3375 41 35 39.6625 35 38C35 36.3375 36.3375 35 38 35C39.6625 35 41 36.3375 41 38C41 39.6625 39.6625 41 38 41Z" fill="#151515"/>
</svg>
