<svg width="64" height="63" viewBox="0 0 64 63" fill="none" xmlns="http://www.w3.org/2000/svg">
<path d="M13.3818 2.64999C14.0606 4.68636 12.9576 6.8803 10.9333 7.55909L7.75758 8.61363V23.2682C7.75758 29.6924 12.9697 34.9045 19.3939 34.9045C25.8182 34.9045 31.0303 29.6924 31.0303 23.2682V8.61363L27.8667 7.55909C25.8303 6.8803 24.7394 4.68636 25.4182 2.64999C26.097 0.613631 28.2909 -0.477278 30.3273 0.20151L33.4909 1.25606C36.6545 2.3106 38.7879 5.26818 38.7879 8.61363V23.2682C38.7879 32.6258 32.1697 40.4318 23.3576 42.2621C24.1212 49.0379 29.8667 54.2985 36.8485 54.2985C44.3515 54.2985 50.4242 48.2258 50.4242 40.7227V32.153C46.9939 30.6621 44.6061 27.2439 44.6061 23.2682C44.6061 17.9106 48.9455 13.5712 54.303 13.5712C59.6606 13.5712 64 17.9106 64 23.2682C64 27.2439 61.6121 30.6621 58.1818 32.153V40.7227C58.1818 52.5045 48.6303 62.0561 36.8485 62.0561C25.5879 62.0561 16.3758 53.3409 15.5758 42.2864C6.69091 40.5045 0 32.6742 0 23.2682V8.61363C0 5.2803 2.13333 2.3106 5.30909 1.25606L8.47273 0.20151C10.5091 -0.477278 12.703 0.625752 13.3818 2.64999ZM54.303 27.147C56.4485 27.147 58.1818 25.4136 58.1818 23.2682C58.1818 21.1227 56.4485 19.3894 54.303 19.3894C52.1576 19.3894 50.4242 21.1227 50.4242 23.2682C50.4242 25.4136 52.1576 27.147 54.303 27.147Z" fill="#151515"/>
</svg>
