<svg width="64" height="53" viewBox="0 0 64 53" fill="none" xmlns="http://www.w3.org/2000/svg">
<path d="M22.4 26.4572C29.47 26.4572 35.2 20.7272 35.2 13.6572C35.2 6.58718 29.47 0.857178 22.4 0.857178C15.33 0.857178 9.6 6.58718 9.6 13.6572C9.6 20.7272 15.33 26.4572 22.4 26.4572ZM17.83 31.2572C7.98 31.2572 0 39.2372 0 49.0872C0 50.7272 1.33 52.0572 2.97 52.0572H41.83C42.01 52.0572 42.18 52.0372 42.36 52.0072C34.73 46.4972 32.38 37.9072 32.05 31.9872C30.44 31.5072 28.74 31.2572 26.98 31.2572H17.83ZM48.71 23.4272L36.71 28.2272C35.8 28.5972 35.2 29.4772 35.2 30.4572C35.2 36.7872 37.79 47.3372 48.68 51.8772C49.27 52.1272 49.94 52.1272 50.53 51.8772C61.41 47.3372 64 36.7872 64 30.4572C64 29.4772 63.4 28.5972 62.49 28.2272L50.49 23.4272C49.92 23.1972 49.28 23.1972 48.71 23.4272ZM59.14 32.0572C58.75 37.1272 56.42 43.7272 49.6 47.0272V28.2372L59.14 32.0572Z" fill="#151515"/>
</svg>
