<svg width="24" height="20" viewBox="0 0 24 20" fill="none" xmlns="http://www.w3.org/2000/svg">
<path d="M18.6 8.4C15.615 8.4 13.2 10.815 13.2 13.8C13.2 16.785 15.615 19.2 18.6 19.2C21.585 19.2 24 16.785 24 13.8C24 10.815 21.585 8.4 18.6 8.4ZM21 14.0363C21 14.235 20.835 14.4 20.6362 14.4H18.3638C18.165 14.4 18 14.235 18 14.0363V11.1638C18 10.965 18.165 10.8 18.3638 10.8H18.8363C19.035 10.8 19.2 10.965 19.2 11.1638V13.2H20.6362C20.835 13.2 21 13.365 21 13.5638V14.0363ZM12 13.8C12 12.7575 12.2513 11.7713 12.6825 10.8938C12.3825 10.8375 12.075 10.8 11.76 10.8H11.1337C10.3013 11.1825 9.375 11.4 8.4 11.4C7.425 11.4 6.5025 11.1825 5.66625 10.8H5.04C2.2575 10.8 0 13.0575 0 15.84V17.4C0 18.3938 0.80625 19.2 1.8 19.2H14.8163C13.1175 18.0037 12 16.0312 12 13.8ZM8.4 9.6C11.0513 9.6 13.2 7.45125 13.2 4.8C13.2 2.14875 11.0513 0 8.4 0C5.74875 0 3.6 2.14875 3.6 4.8C3.6 7.45125 5.74875 9.6 8.4 9.6Z" fill="#151515"/>
</svg>
