<svg width="23" height="22" viewBox="0 0 23 22" fill="none" xmlns="http://www.w3.org/2000/svg">
<path d="M9.77917 1.79087L8.20833 2.38224C8.08333 2.42837 8 2.55 8 2.68421C8 2.81842 8.08333 2.94005 8.20833 2.98618L9.77917 3.57755L10.3667 5.15872C10.4125 5.28454 10.5333 5.36842 10.6667 5.36842C10.8 5.36842 10.9208 5.28454 10.9667 5.15872L11.5542 3.57755L13.125 2.98618C13.25 2.94005 13.3333 2.81842 13.3333 2.68421C13.3333 2.55 13.25 2.42837 13.125 2.38224L11.5542 1.79087L10.9667 0.209704C10.9208 0.0838816 10.8 0 10.6667 0C10.5333 0 10.4125 0.0838816 10.3667 0.209704L9.77917 1.79087ZM1.92083 16.5834C1.14167 17.3677 1.14167 18.6427 1.92083 19.4312L3.3625 20.8823C4.14167 21.6666 5.40833 21.6666 6.19167 20.8823L22.0792 4.8861C22.8583 4.10181 22.8583 2.82681 22.0792 2.03832L20.6375 0.591365C19.8583 -0.192928 18.5917 -0.192928 17.8083 0.591365L1.92083 16.5834ZM20.1917 3.46431L15.8167 7.86809L14.8458 6.89087L19.2208 2.48709L20.1917 3.46431ZM0.3125 4.91546C0.125 4.98676 0 5.1671 0 5.36842C0 5.56974 0.125 5.75008 0.3125 5.82138L2.66667 6.71053L3.55 9.08018C3.62083 9.26891 3.8 9.39474 4 9.39474C4.2 9.39474 4.37917 9.26891 4.45 9.08018L5.33333 6.71053L7.6875 5.82138C7.875 5.75008 8 5.56974 8 5.36842C8 5.1671 7.875 4.98676 7.6875 4.91546L5.33333 4.02632L4.45 1.65666C4.37917 1.46793 4.2 1.34211 4 1.34211C3.8 1.34211 3.62083 1.46793 3.55 1.65666L2.66667 4.02632L0.3125 4.91546ZM14.9792 15.6523C14.7917 15.7236 14.6667 15.9039 14.6667 16.1053C14.6667 16.3066 14.7917 16.4869 14.9792 16.5582L17.3333 17.4474L18.2167 19.817C18.2875 20.0058 18.4667 20.1316 18.6667 20.1316C18.8667 20.1316 19.0458 20.0058 19.1167 19.817L20 17.4474L22.3542 16.5582C22.5417 16.4869 22.6667 16.3066 22.6667 16.1053C22.6667 15.9039 22.5417 15.7236 22.3542 15.6523L20 14.7632L19.1167 12.3935C19.0458 12.2048 18.8667 12.0789 18.6667 12.0789C18.4667 12.0789 18.2875 12.2048 18.2167 12.3935L17.3333 14.7632L14.9792 15.6523Z" fill="#151515"/>
</svg>
