<svg width="22" height="22" viewBox="0 0 22 22" fill="none" xmlns="http://www.w3.org/2000/svg">
<path d="M14 3C14 4.65685 12.6569 6 11 6C9.34315 6 8 4.65685 8 3C8 1.34315 9.34315 0 11 0C12.6569 0 14 1.34315 14 3Z" fill="#151515"/>
<path d="M22 3C22 4.65685 20.6569 6 19 6C17.3431 6 16 4.65685 16 3C16 1.34315 17.3431 0 19 0C20.6569 0 22 1.34315 22 3Z" fill="#151515"/>
<path d="M6 3C6 4.65685 4.65685 6 3 6C1.34315 6 0 4.65685 0 3C0 1.34315 1.34315 0 3 0C4.65685 0 6 1.34315 6 3Z" fill="#151515"/>
<path d="M6 11C6 12.6569 4.65685 14 3 14C1.34315 14 0 12.6569 0 11C0 9.34315 1.34315 8 3 8C4.65685 8 6 9.34315 6 11Z" fill="#151515"/>
<path d="M14 11C14 12.6569 12.6569 14 11 14C9.34315 14 8 12.6569 8 11C8 9.34315 9.34315 8 11 8C12.6569 8 14 9.34315 14 11Z" fill="#151515"/>
<path d="M22 11C22 12.6569 20.6569 14 19 14C17.3431 14 16 12.6569 16 11C16 9.34315 17.3431 8 19 8C20.6569 8 22 9.34315 22 11Z" fill="#151515"/>
<path d="M22 19C22 20.6569 20.6569 22 19 22C17.3431 22 16 20.6569 16 19C16 17.3431 17.3431 16 19 16C20.6569 16 22 17.3431 22 19Z" fill="#151515"/>
<path d="M14 19C14 20.6569 12.6569 22 11 22C9.34315 22 8 20.6569 8 19C8 17.3431 9.34315 16 11 16C12.6569 16 14 17.3431 14 19Z" fill="#151515"/>
<path d="M6 19C6 20.6569 4.65685 22 3 22C1.34315 22 0 20.6569 0 19C0 17.3431 1.34315 16 3 16C4.65685 16 6 17.3431 6 19Z" fill="#151515"/>
</svg>
